<?xml version="1.0" encoding="UTF-8"?><svg xmlns="http://www.w3.org/2000/svg" xmlns:xlink="http://www.w3.org/1999/xlink" height="48.2" preserveAspectRatio="xMidYMid meet" version="1.0" viewBox="2.5 2.2 48.6 48.2" width="48.6" zoomAndPan="magnify"><g><g id="change1_1"><path d="M16.264061,43.6725121c-1.329855,1.3298531-6.1748552,2.7611465-8.8877583,3.4828873 c-0.8491235,0.2259026-1.6237535-0.5491982-1.3973665-1.3981934c0.7230921-2.711731,2.1564841-7.5538483,3.4862332-8.8835945 c1.8773766-1.8773727,4.9216127-1.8816795,6.7988873-0.0044022C18.1457462,38.7509003,18.1414375,41.7951355,16.264061,43.6725121 z" fill="#ffc536"/></g><g id="change2_3"><path d="M16.2650089,40.7485008c-0.6862059,0.6862068-3.0141954,1.4197884-4.59653,1.8578949 c-0.6952896,0.1925049-1.3317432-0.4442825-1.1388416-1.1394615c0.4388647-1.5815811,1.1734056-3.9081306,1.8595409-4.594265 c1.0702324-1.0702324,2.8056536-1.0726852,3.8758268-0.0025101C17.3376961,37.942852,17.3352413,39.6782722,16.2650089,40.7485008 z" fill="#f34624"/></g><g id="change3_2"><path d="M21.6853905,38.7671928l-2.3075275,2.3075256c-0.3905239,0.3905258-1.0236893,0.3905258-1.4142132,0 l-5.9006853-5.900692c-0.3905239-0.3905258-0.3905239-1.0236893,0-1.4142151l2.3075285-2.3075237L21.6853905,38.7671928z" fill="#2c3642"/></g><g><g id="change2_4"><path d="M32.7732887,45.0583801c-3.263567,2.6780319-7.7890701,4.561306-12.3467102,5.1888771 c-0.989502,0.1362534-1.6451607-0.9619865-1.0729923-1.7807083c2.4367085-3.4867096,3.9042835-7.3257103,4.347332-11.0683403 l12.34902-9.0765476C38.762516,34.1345062,38.6549797,40.2359047,32.7732887,45.0583801z" fill="#f34624"/></g><g id="change2_2"><path d="M24.5405178,16.8122272L15.463954,29.1612358c-3.7391033,0.446661-7.5806189,1.9118557-11.0682793,4.3477669 c-0.8188803,0.5719337-1.9169352-0.0839424-1.7804587-1.07341c0.6284962-4.5566711,2.5142262-9.0795956,5.1886835-12.3466301 C12.62638,14.2072763,18.7319851,14.1039524,24.5405178,16.8122272z" fill="#f34624"/></g></g><g id="change4_1"><path d="M38.4519806,30.3172607l-15.5299702,9.9760818c-0.7913818,0.5083656-1.8300552,0.3965912-2.4951572-0.2685127 l-7.3166227-7.3166275c-0.665102-0.6651001-0.7768764-1.7037754-0.2685108-2.4951572l9.9760942-15.5299616 c1.0182362-1.583869,2.1920567-3.0405493,3.4860306-4.3345232c5.3879776-5.3879728,12.9296837-8.178113,20.6038017-7.5096855 c1.8114433,0.1577795,3.2376404,1.5893457,3.3934631,3.4009578C51.1192703,15.7518044,46.6247597,25.065136,38.4519806,30.3172607 z" fill="#ededed"/></g><g id="change2_1"><path d="M49.1353188,16.4206161c1.0457268-3.2413664,1.4655685-6.6970577,1.1657486-10.1815357 c-0.1557999-1.8111849-1.5816231-3.2423606-3.3926353-3.4001489c-3.4899178-0.3040533-6.9499664,0.1142783-10.1950035,1.1597877 L49.1353188,16.4206161z" fill="#f34624"/></g><g id="change3_1"><path d="M39.146534,23.2892437c-2.57407,2.5740662-6.7346878,2.5740623-9.300703,0.0080471 c-2.5740681-2.57407-2.5740681-6.7346897,0-9.3087559c2.5660114-2.5660124,6.7266331-2.5660095,9.3006992,0.0080605 C41.7125473,16.5626106,41.7125473,20.7232323,39.146534,23.2892437z" fill="#2c3642"/></g><g id="change5_1"><circle cx="34.499" cy="18.643" fill="#00aeff" r="5.05" transform="rotate(-6.911 34.5 18.643)"/></g></g></svg>